<?xml version="1.0" standalone="no"?><!DOCTYPE svg PUBLIC "-//W3C//DTD SVG 1.1//EN" "http://www.w3.org/Graphics/SVG/1.1/DTD/svg11.dtd"><svg t="1686234176165" class="icon" viewBox="0 0 1024 1024" version="1.1" xmlns="http://www.w3.org/2000/svg" p-id="10145" width="128" height="128" xmlns:xlink="http://www.w3.org/1999/xlink"><path d="M752.425722 943.663365H261.713295c-72.158094 0-130.856647-56.361827-130.856648-125.669116V271.714481c0-69.307289 58.698553-125.71585 130.856648-125.71585a37.387614 37.387614 0 0 1 0 74.775227c-30.93825 0-56.08142 22.853179-56.081421 50.940623V817.854046c0 28.04071 25.14317 50.893889 56.081421 50.893889h490.712427c30.93825 0 56.08142-22.853179 56.081421-50.893889V271.714481c0-28.04071-25.14317-50.940623-56.081421-50.940623a37.387614 37.387614 0 1 1 0-74.775227c72.158094 0 130.856647 56.408562 130.856648 125.71585V817.854046c0 69.447492-58.792022 125.80932-130.856648 125.809319z" p-id="10146" fill="#2c2c2c"></path><path d="M629.186801 272.649172H378.549587a64.400164 64.400164 0 0 1-64.166492-64.35343v-42.902287A64.400164 64.400164 0 0 1 378.549587 101.040026h250.497011a64.400164 64.400164 0 0 1 64.306695 64.353429v42.902287a64.400164 64.400164 0 0 1-64.166492 64.35343z m-244.70193-70.101776h238.90685v-31.405595H384.484871zM493.656702 693.914107a37.387614 37.387614 0 0 1-25.797453-10.328328l-120.761992-115.107115a37.387614 37.387614 0 1 1 51.407969-54.118571l92.534343 88.188034 154.223906-176.189129a37.387614 37.387614 0 0 1 56.08142 49.304915l-180.161562 205.631875a37.387614 37.387614 0 0 1-26.405002 12.711788z" p-id="10147" fill="#2c2c2c"></path></svg>